<svg width="100" height="79" viewBox="0 0 100 79" fill="none" xmlns="http://www.w3.org/2000/svg">
<path d="M60.1791 19.7316C64.3684 13.0288 69.3955 8.00163 75.2605 4.65021C79.7291 1.85736 84.6864 0.460938 90.1324 0.460938C93.7631 0.460938 95.5785 1.43843 95.5785 3.39343C95.5785 4.23129 94.8105 4.9295 93.2744 5.48807C87.1301 7.86199 82.2426 12.1909 78.6119 18.4748C75.6794 23.502 74.0037 28.5291 73.5848 33.5562C74.4226 33.4166 75.6794 33.3467 77.3551 33.3467C92.2969 33.3467 99.7678 40.8176 99.7678 55.7594C99.7678 70.7011 92.2969 78.172 77.3551 78.172C69.8145 78.172 63.74 75.6584 59.1318 70.6313C53.965 65.3249 51.3816 58.2031 51.3816 49.266C51.3816 38.5135 54.3141 28.6687 60.1791 19.7316ZM9.48888 19.7316C13.6782 13.0288 18.7053 8.00163 24.5703 4.65021C29.0388 1.85736 33.9961 0.460938 39.4422 0.460938C43.0729 0.460938 44.8883 1.43843 44.8883 3.39343C44.8883 4.23129 44.1202 4.9295 42.5842 5.48807C36.4399 7.86199 31.5524 12.1909 27.9217 18.4748C24.9892 23.502 23.3135 28.5291 22.8946 33.5562C23.7324 33.4166 24.9892 33.3467 26.6649 33.3467C41.6067 33.3467 49.0775 40.8176 49.0775 55.7594C49.0775 70.7011 41.6067 78.172 26.6649 78.172C19.1242 78.172 13.0498 75.6584 8.44157 70.6313C3.27479 65.3249 0.691406 58.2031 0.691406 49.266C0.691406 38.5135 3.6239 28.6687 9.48888 19.7316Z" fill="black"/>
</svg>
